<svg width="1977" height="1615" viewBox="0 0 1977 1615" fill="none" xmlns="http://www.w3.org/2000/svg">
<g filter="url(#filter0_f_1405_195)">
<path d="M462.497 1166.67C499.015 1260.3 552.112 1365.25 438.143 1409.7C324.175 1454.15 288.588 1316.6 252.07 1222.97C215.552 1129.35 142.621 942.365 243.065 909.556C343.509 876.747 425.98 1073.05 462.497 1166.67Z" fill="#E7EAFC" fill-opacity="0.75"/>
</g>
<g filter="url(#filter1_f_1405_195)">
<path d="M1616.13 816.678C1724.28 1032.35 1865.34 1276.02 1702.64 1357.62C1539.94 1439.21 1410.49 1125.2 1302.34 909.534C1194.18 693.866 978.187 263.144 1124.89 205.513C1271.59 147.882 1507.98 601.009 1616.13 816.678Z" fill="#E7EAFC" fill-opacity="0.75"/>
</g>
<g filter="url(#filter2_f_1405_195)">
<path d="M883.52 873.207C976.481 1111.54 1100.06 1383.22 935.065 1447.57C770.074 1511.93 662.266 1168.48 569.305 930.142C476.344 691.808 290.687 215.821 438.466 174.393C586.245 132.965 790.559 634.874 883.52 873.207Z" fill="#C6E5FB" fill-opacity="0.75"/>
</g>
<g filter="url(#filter3_f_1405_195)">
<path d="M620.708 927.24C713.494 1165.12 838.206 1435.75 658.721 1505.76C479.235 1575.77 373.668 1232.17 280.882 994.289C188.097 756.405 2.79042 281.316 163.06 234.986C323.329 188.656 527.923 689.357 620.708 927.24Z" fill="#F9EBF5" fill-opacity="0.75"/>
</g>
<defs>
<filter id="filter0_f_1405_195" x="92.145" y="805.9" width="515.104" height="712.408" filterUnits="userSpaceOnUse" color-interpolation-filters="sRGB">
<feFlood flood-opacity="0" result="BackgroundImageFix"/>
<feBlend mode="normal" in="SourceGraphic" in2="BackgroundImageFix" result="shape"/>
<feGaussianBlur stdDeviation="50" result="effect1_foregroundBlur_1405_195"/>
</filter>
<filter id="filter1_f_1405_195" x="875.432" y="0.492554" width="1101.15" height="1570.35" filterUnits="userSpaceOnUse" color-interpolation-filters="sRGB">
<feFlood flood-opacity="0" result="BackgroundImageFix"/>
<feBlend mode="normal" in="SourceGraphic" in2="BackgroundImageFix" result="shape"/>
<feGaussianBlur stdDeviation="100" result="effect1_foregroundBlur_1405_195"/>
</filter>
<filter id="filter2_f_1405_195" x="283.295" y="71.9774" width="832.666" height="1483.48" filterUnits="userSpaceOnUse" color-interpolation-filters="sRGB">
<feFlood flood-opacity="0" result="BackgroundImageFix"/>
<feBlend mode="normal" in="SourceGraphic" in2="BackgroundImageFix" result="shape"/>
<feGaussianBlur stdDeviation="50" result="effect1_foregroundBlur_1405_195"/>
</filter>
<filter id="filter3_f_1405_195" x="0.0917969" y="131.979" width="849.95" height="1483.01" filterUnits="userSpaceOnUse" color-interpolation-filters="sRGB">
<feFlood flood-opacity="0" result="BackgroundImageFix"/>
<feBlend mode="normal" in="SourceGraphic" in2="BackgroundImageFix" result="shape"/>
<feGaussianBlur stdDeviation="50" result="effect1_foregroundBlur_1405_195"/>
</filter>
</defs>
</svg>
